<svg width="100%" height="100%" viewBox="0 0 700 700" fill="none" xmlns="http://www.w3.org/2000/svg">
<g clip-path="url(#clip0_175_2)">
<mask id="path-2-inside-1_175_2" fill="white">
<path d="M239.703 365.443C232.003 378.78 226.208 393.217 222.319 408.753C218.063 424.925 216.946 440.793 218.969 456.356C220.625 472.554 226.105 487.996 235.408 502.682C244.711 517.368 259.207 530.394 278.895 541.761C294.772 550.928 311.065 558.641 327.773 564.901C343.847 570.794 358.516 575.452 371.781 578.877C422.837 593.112 446.689 609 443.336 626.54C441.476 635.628 433.803 643.052 420.315 648.814C406.827 654.575 389.896 657.501 369.521 657.592C348.51 657.317 325.375 654.121 300.115 648.006C274.221 641.523 248.254 630.765 222.216 615.732C196.177 600.698 174.928 582.503 158.469 561.145C141.374 539.42 129.471 516.036 122.761 490.993C115.684 466.584 113.75 441.334 116.958 415.243C120.167 389.152 128.738 364.039 142.672 339.906L262.572 132.233C268.072 122.707 274.904 110.139 283.069 94.5307C291.234 78.922 297.212 64.1677 301.003 50.2677C306.923 28.2818 312.888 16.4836 318.898 14.8731C323.54 14.1661 329.171 16.1468 335.79 20.8152C342.141 24.4819 347.758 29.4188 352.643 35.6258C359.065 43.5679 363.472 55.0029 365.861 69.9309C367.982 83.8572 367.134 100.726 363.316 120.539C368.692 118.562 377.341 116.781 389.263 115.197C400.184 113.881 413.328 113.848 428.695 115.099C444.428 115.715 461.199 118.2 479.008 122.555C496.182 126.542 513.208 132.985 530.087 141.884C563.478 160.315 589.405 179.942 607.868 200.763C626.698 220.948 639.749 241.609 647.023 262.744C653.662 283.512 655.707 304.169 653.16 324.715C649.611 345.529 642.837 365.328 632.839 384.112C622.474 403.531 608.482 420.433 590.862 434.817C573.243 449.201 552.779 458.979 529.47 464.151C506.162 469.323 480.057 469.07 451.157 463.393C422.258 457.716 391.161 444.843 357.868 424.775C339.817 413.506 321.511 398.28 302.95 379.096C284.389 359.912 271.19 341.706 263.353 324.48L239.703 365.443ZM292.1 272.488C306.216 289.106 322.787 305.871 341.813 322.783C360.204 339.328 380.38 353.517 402.339 365.349C465.946 400.378 512.233 392.807 541.199 342.636C555.499 317.867 557.412 296.955 546.936 279.899C535.826 262.476 514.711 244.782 483.592 226.815C473.431 220.948 461.901 215.985 449.003 211.925C435.469 207.499 422.204 204.075 409.208 201.652C395.21 199.497 381.798 198.528 368.971 198.744C355.51 198.593 343.636 199.359 333.35 201.041L292.1 272.488Z"/>
</mask>
<path d="M239.703 365.443C232.003 378.78 226.208 393.217 222.319 408.753C218.063 424.925 216.946 440.793 218.969 456.356C220.625 472.554 226.105 487.996 235.408 502.682C244.711 517.368 259.207 530.394 278.895 541.761C294.772 550.928 311.065 558.641 327.773 564.901C343.847 570.794 358.516 575.452 371.781 578.877C422.837 593.112 446.689 609 443.336 626.54C441.476 635.628 433.803 643.052 420.315 648.814C406.827 654.575 389.896 657.501 369.521 657.592C348.51 657.317 325.375 654.121 300.115 648.006C274.221 641.523 248.254 630.765 222.216 615.732C196.177 600.698 174.928 582.503 158.469 561.145C141.374 539.42 129.471 516.036 122.761 490.993C115.684 466.584 113.75 441.334 116.958 415.243C120.167 389.152 128.738 364.039 142.672 339.906L262.572 132.233C268.072 122.707 274.904 110.139 283.069 94.5307C291.234 78.922 297.212 64.1677 301.003 50.2677C306.923 28.2818 312.888 16.4836 318.898 14.8731C323.54 14.1661 329.171 16.1468 335.79 20.8152C342.141 24.4819 347.758 29.4188 352.643 35.6258C359.065 43.5679 363.472 55.0029 365.861 69.9309C367.982 83.8572 367.134 100.726 363.316 120.539C368.692 118.562 377.341 116.781 389.263 115.197C400.184 113.881 413.328 113.848 428.695 115.099C444.428 115.715 461.199 118.2 479.008 122.555C496.182 126.542 513.208 132.985 530.087 141.884C563.478 160.315 589.405 179.942 607.868 200.763C626.698 220.948 639.749 241.609 647.023 262.744C653.662 283.512 655.707 304.169 653.16 324.715C649.611 345.529 642.837 365.328 632.839 384.112C622.474 403.531 608.482 420.433 590.862 434.817C573.243 449.201 552.779 458.979 529.47 464.151C506.162 469.323 480.057 469.07 451.157 463.393C422.258 457.716 391.161 444.843 357.868 424.775C339.817 413.506 321.511 398.28 302.95 379.096C284.389 359.912 271.19 341.706 263.353 324.48L239.703 365.443ZM292.1 272.488C306.216 289.106 322.787 305.871 341.813 322.783C360.204 339.328 380.38 353.517 402.339 365.349C465.946 400.378 512.233 392.807 541.199 342.636C555.499 317.867 557.412 296.955 546.936 279.899C535.826 262.476 514.711 244.782 483.592 226.815C473.431 220.948 461.901 215.985 449.003 211.925C435.469 207.499 422.204 204.075 409.208 201.652C395.21 199.497 381.798 198.528 368.971 198.744C355.51 198.593 343.636 199.359 333.35 201.041L292.1 272.488Z" fill="url(#paint0_linear_175_2)"/>
<path d="M222.319 408.753L231.989 411.299L232.005 411.24L232.019 411.182L222.319 408.753ZM218.969 456.356L228.917 455.339L228.903 455.203L228.885 455.067L218.969 456.356ZM327.773 564.901L324.265 574.265L324.298 574.277L324.331 574.289L327.773 564.901ZM371.781 578.877L374.467 569.244L374.374 569.218L374.281 569.194L371.781 578.877ZM443.336 626.54L453.133 628.545L453.146 628.481L453.158 628.417L443.336 626.54ZM369.521 657.592L369.389 667.592L369.477 667.593L369.565 667.592L369.521 657.592ZM300.115 648.006L297.687 657.706L297.725 657.716L297.762 657.725L300.115 648.006ZM158.469 561.145L166.389 555.041L166.359 555.001L166.327 554.961L158.469 561.145ZM122.761 490.993L132.42 488.404L132.394 488.306L132.365 488.208L122.761 490.993ZM116.958 415.243L126.884 416.463L126.884 416.463L116.958 415.243ZM283.069 94.5307L291.93 99.1659L291.93 99.1659L283.069 94.5307ZM301.003 50.2677L310.651 52.8991L310.655 52.8833L310.659 52.8675L301.003 50.2677ZM318.898 14.8731L317.392 4.98712L316.845 5.07052L316.31 5.21387L318.898 14.8731ZM335.79 20.8152L330.027 28.9872L330.397 29.2487L330.79 29.4755L335.79 20.8152ZM352.643 35.6258L344.784 41.8096L344.825 41.862L344.867 41.9139L352.643 35.6258ZM365.861 69.9309L375.747 68.4253L375.741 68.3878L375.735 68.3504L365.861 69.9309ZM363.316 120.539L353.497 118.647L350.146 136.038L366.768 129.924L363.316 120.539ZM389.263 115.197L388.067 105.268L388.007 105.276L387.946 105.284L389.263 115.197ZM428.695 115.099L427.884 125.066L428.093 125.083L428.304 125.092L428.695 115.099ZM479.008 122.555L476.633 132.269L476.689 132.282L476.746 132.296L479.008 122.555ZM530.087 141.884L534.919 133.129L534.835 133.082L534.75 133.038L530.087 141.884ZM607.868 200.763L600.386 207.397L600.47 207.492L600.556 207.584L607.868 200.763ZM647.023 262.744L656.548 259.699L656.515 259.594L656.479 259.49L647.023 262.744ZM653.16 324.715L663.017 326.396L663.056 326.171L663.084 325.945L653.16 324.715ZM632.839 384.112L641.661 388.821L641.666 388.811L632.839 384.112ZM590.862 434.817L584.538 427.071L584.538 427.071L590.862 434.817ZM529.47 464.151L531.637 473.914L531.637 473.914L529.47 464.151ZM451.157 463.393L453.085 453.581L451.157 463.393ZM357.868 424.775L352.573 433.257L352.639 433.299L352.706 433.339L357.868 424.775ZM302.95 379.096L310.137 372.142L310.137 372.142L302.95 379.096ZM263.353 324.48L272.455 320.339L264.409 302.652L254.693 319.48L263.353 324.48ZM292.1 272.488L283.44 267.488L279.916 273.591L284.479 278.962L292.1 272.488ZM341.813 322.783L348.501 315.349L348.479 315.329L348.457 315.309L341.813 322.783ZM402.339 365.349L407.163 356.589L407.123 356.567L407.083 356.545L402.339 365.349ZM546.936 279.899L555.458 274.666L555.413 274.594L555.368 274.522L546.936 279.899ZM449.003 211.925L445.894 221.43L445.947 221.447L446 221.464L449.003 211.925ZM409.208 201.652L411.041 191.821L410.885 191.792L410.729 191.768L409.208 201.652ZM368.971 198.744L368.859 208.743L368.999 208.745L369.139 208.742L368.971 198.744ZM333.35 201.041L331.736 191.172L327.059 191.937L324.69 196.041L333.35 201.041ZM231.043 360.443C222.86 374.616 216.724 389.923 212.618 406.325L232.019 411.182C235.692 396.51 241.146 382.943 248.363 370.443L231.043 360.443ZM212.648 406.208C208.085 423.547 206.852 440.717 209.052 457.645L228.885 455.067C227.04 440.868 228.04 426.303 231.989 411.299L212.648 406.208ZM209.02 457.373C210.845 475.216 216.885 492.129 226.96 508.034L243.856 497.331C235.324 483.863 230.405 469.892 228.917 455.339L209.02 457.373ZM226.96 508.034C237.354 524.44 253.223 538.487 273.895 550.421L283.895 533.101C265.191 522.302 252.069 510.296 243.856 497.331L226.96 508.034ZM273.895 550.421C290.236 559.856 307.027 567.807 324.265 574.265L331.282 555.536C315.103 549.475 299.308 542 283.895 533.101L273.895 550.421ZM324.331 574.289C340.641 580.269 355.631 585.035 369.281 588.559L374.281 569.194C361.402 565.869 347.053 561.318 331.216 555.512L324.331 574.289ZM369.095 588.509C394.316 595.541 411.823 602.734 422.418 609.792C433.259 617.013 434.03 621.962 433.514 624.663L453.158 628.417C455.995 613.578 446.516 601.813 433.506 593.146C420.249 584.316 400.302 576.448 374.467 569.244L369.095 588.509ZM433.539 624.535C432.651 628.874 428.661 634.375 416.387 639.617L424.243 658.01C438.945 651.73 450.302 642.381 453.133 628.545L433.539 624.535ZM416.387 639.617C404.506 644.693 389.001 647.505 369.476 647.593L369.565 667.592C390.791 667.497 409.149 664.457 424.243 658.01L416.387 639.617ZM369.652 647.593C349.542 647.33 327.164 644.266 302.469 638.286L297.762 657.725C323.586 663.977 347.478 667.304 369.389 667.592L369.652 647.593ZM302.544 638.305C277.656 632.074 252.549 621.698 227.216 607.072L217.216 624.392C243.959 639.832 270.786 650.972 297.687 657.706L302.544 638.305ZM227.216 607.072C202.178 592.616 181.965 575.251 166.389 555.041L150.548 567.249C167.892 589.754 190.176 608.781 217.216 624.392L227.216 607.072ZM166.327 554.961C150.014 534.229 138.757 512.055 132.42 488.404L113.102 493.581C120.185 520.018 132.734 544.612 150.61 567.329L166.327 554.961ZM132.365 488.208C125.678 465.144 123.834 441.259 126.884 416.463L107.033 414.022C103.665 441.409 105.69 468.024 113.157 493.777L132.365 488.208ZM126.884 416.463C129.919 391.783 138.029 367.948 151.332 344.906L134.011 334.906C119.448 360.131 110.416 386.52 107.033 414.022L126.884 416.463ZM151.332 344.906L271.232 137.233L253.911 127.233L134.011 334.906L151.332 344.906ZM271.232 137.233C276.83 127.538 283.734 114.834 291.93 99.1659L274.208 89.8956C266.074 105.445 259.314 117.876 253.911 127.233L271.232 137.233ZM291.93 99.1659C300.358 83.0548 306.634 67.6266 310.651 52.8991L291.356 47.6363C287.79 60.7087 282.11 74.7892 274.208 89.8956L291.93 99.1659ZM310.659 52.8675C313.549 42.1352 316.31 34.4468 318.841 29.4416C320.105 26.9408 321.143 25.4522 321.857 24.6524C322.605 23.815 322.526 24.2537 321.486 24.5324L316.31 5.21387C312.264 6.29785 309.186 8.81525 306.94 11.33C304.661 13.8824 302.71 17.0194 300.992 20.4177C297.558 27.2107 294.377 36.4144 291.347 47.668L310.659 52.8675ZM320.404 24.7591C321.18 24.6409 324.101 24.8084 330.027 28.9872L341.554 12.6432C334.24 7.48531 325.9 3.69134 317.392 4.98712L320.404 24.7591ZM330.79 29.4755C335.957 32.4585 340.625 36.5248 344.784 41.8096L360.501 29.4419C354.892 22.3127 348.325 16.5053 340.79 12.155L330.79 29.4755ZM344.867 41.9139C349.787 47.9974 353.75 57.5385 355.987 71.5115L375.735 68.3504C373.193 52.4673 368.344 39.1384 360.418 29.3376L344.867 41.9139ZM355.975 71.4366C357.867 83.8615 357.184 99.5118 353.497 118.647L373.136 122.431C377.084 101.941 378.097 83.853 375.747 68.4253L355.975 71.4366ZM366.768 129.924C371.047 128.35 378.773 126.678 390.581 125.11L387.946 105.284C375.909 106.883 366.336 108.773 359.864 111.153L366.768 129.924ZM390.46 125.125C400.509 123.914 412.942 123.85 427.884 125.066L429.506 105.132C413.715 103.847 399.86 103.848 388.067 105.268L390.46 125.125ZM428.304 125.092C443.27 125.677 459.371 128.048 476.633 132.269L481.383 112.841C463.027 108.353 445.587 105.753 429.086 105.107L428.304 125.092ZM476.746 132.296C493.019 136.074 509.241 142.199 525.423 150.73L534.75 133.038C517.174 123.772 499.345 117.011 481.27 112.814L476.746 132.296ZM525.254 150.638C557.991 168.709 582.901 187.68 600.386 207.397L615.35 194.128C595.908 172.203 568.964 151.921 534.919 133.129L525.254 150.638ZM600.556 207.584C618.647 226.979 630.844 246.462 637.567 265.998L656.479 259.49C648.655 236.756 634.748 214.918 615.18 193.941L600.556 207.584ZM637.498 265.789C643.719 285.253 645.595 304.452 643.236 323.484L663.084 325.945C665.819 303.887 663.604 281.772 656.548 259.699L637.498 265.789ZM643.302 323.034C639.934 342.785 633.511 361.566 624.011 379.414L641.666 388.811C652.163 369.09 659.287 348.273 663.017 326.396L643.302 323.034ZM624.017 379.403C614.296 397.616 601.167 413.495 584.538 427.071L597.186 442.564C615.796 427.371 630.652 409.447 641.661 388.821L624.017 379.403ZM584.538 427.071C568.189 440.418 549.167 449.538 527.304 454.389L531.637 473.914C556.392 468.421 578.297 457.984 597.186 442.564L584.538 427.071ZM527.304 454.389C505.618 459.201 480.939 459.052 453.085 453.581L449.23 473.206C479.176 479.088 506.706 479.446 531.637 473.914L527.304 454.389ZM453.085 453.581C425.628 448.187 395.627 435.859 363.031 416.21L352.706 433.339C386.695 453.827 418.887 467.245 449.23 473.206L453.085 453.581ZM363.164 416.292C345.952 405.547 328.269 390.883 310.137 372.142L295.763 386.049C314.754 405.677 333.683 421.465 352.573 433.257L363.164 416.292ZM310.137 372.142C292.07 353.469 279.668 336.194 272.455 320.339L254.251 328.621C262.711 347.218 276.708 366.354 295.763 386.049L310.137 372.142ZM254.693 319.48L231.043 360.443L248.363 370.443L272.013 329.48L254.693 319.48ZM284.479 278.962C298.942 295.989 315.851 313.084 335.17 330.257L348.457 315.309C329.723 298.657 313.49 282.223 299.722 266.014L284.479 278.962ZM335.125 330.217C354.113 347.299 374.942 361.946 397.596 374.152L407.083 356.545C385.818 345.088 366.296 331.358 348.501 315.349L335.125 330.217ZM397.515 374.108C430.265 392.144 460.099 400.109 486.374 395.812C513.164 391.43 534.263 374.649 549.86 347.636L532.539 337.636C519.169 360.794 502.642 372.885 483.145 376.074C463.133 379.347 438.02 373.583 407.163 356.589L397.515 374.108ZM549.86 347.636C565.112 321.219 568.628 296.11 555.458 274.666L538.415 285.133C546.195 297.8 545.887 314.516 532.539 337.636L549.86 347.636ZM555.368 274.522C542.974 255.086 520.214 236.412 488.592 218.155L478.592 235.475C509.208 253.151 528.678 269.866 538.505 285.276L555.368 274.522ZM488.592 218.155C477.712 211.873 465.496 206.633 452.005 202.387L446 221.464C458.306 225.337 469.15 230.024 478.592 235.475L488.592 218.155ZM452.111 202.421C438.192 197.868 424.501 194.33 411.041 191.821L407.375 211.482C419.908 213.819 432.747 217.13 445.894 221.43L452.111 202.421ZM410.729 191.768C396.229 189.536 382.25 188.519 368.803 188.745L369.139 208.742C381.346 208.537 394.191 209.458 407.687 211.535L410.729 191.768ZM369.083 188.744C355.201 188.589 342.729 189.374 331.736 191.172L334.965 210.91C344.543 209.343 355.819 208.597 368.859 208.743L369.083 188.744ZM324.69 196.041L283.44 267.488L300.761 277.488L342.011 206.041L324.69 196.041Z" fill="white" fill-opacity="0.5" mask="url(#path-2-inside-1_175_2)"/>
<mask id="path-4-inside-2_175_2" fill="white">
<path d="M132.867 228.191C84.4799 219.659 63.0243 199.866 68.5 168.811C72.0655 148.59 76.9909 131.215 83.276 116.685C89.6885 101.434 100.626 92.1926 116.089 88.9619C119.954 88.1542 125.625 87.6649 133.102 87.4939C140.706 86.6008 148.544 86.4935 156.615 87.1721C164.814 87.1284 172.524 87.7433 179.746 89.0168C186.373 89.4406 190.643 90.5658 192.555 92.3922C201.519 100.675 207.935 110.742 211.803 122.593C214.948 134.318 215.629 145.235 213.846 155.346C209.644 179.178 202.17 198.338 191.424 212.826C179.829 227.908 160.31 233.03 132.867 228.191Z"/>
</mask>
<path d="M132.867 228.191C84.4799 219.659 63.0243 199.866 68.5 168.811C72.0655 148.59 76.9909 131.215 83.276 116.685C89.6885 101.434 100.626 92.1926 116.089 88.9619C119.954 88.1542 125.625 87.6649 133.102 87.4939C140.706 86.6008 148.544 86.4935 156.615 87.1721C164.814 87.1284 172.524 87.7433 179.746 89.0168C186.373 89.4406 190.643 90.5658 192.555 92.3922C201.519 100.675 207.935 110.742 211.803 122.593C214.948 134.318 215.629 145.235 213.846 155.346C209.644 179.178 202.17 198.338 191.424 212.826C179.829 227.908 160.31 233.03 132.867 228.191Z" fill="url(#paint1_linear_175_2)"/>
<path d="M83.276 116.685L92.4541 120.656L92.4745 120.608L92.4944 120.561L83.276 116.685ZM116.089 88.9619L114.043 79.1733L114.043 79.1733L116.089 88.9619ZM133.102 87.4939L133.331 97.4913L133.801 97.4806L134.269 97.4257L133.102 87.4939ZM156.615 87.1721L155.777 97.1369L156.222 97.1743L156.668 97.1719L156.615 87.1721ZM179.746 89.0168L178.01 98.8648L178.555 98.961L179.108 98.9964L179.746 89.0168ZM192.555 92.3922L185.647 99.6231L185.707 99.6806L185.769 99.7372L192.555 92.3922ZM211.803 122.593L221.461 120.002L221.392 119.745L221.309 119.491L211.803 122.593ZM191.424 212.826L199.352 218.921L199.405 218.852L199.456 218.783L191.424 212.826ZM134.603 218.343C111.147 214.207 95.9219 207.582 87.2655 199.597C79.2714 192.222 76.1448 183.043 78.348 170.548L58.6519 167.075C55.3794 185.634 60.2428 201.878 73.7043 214.297C86.5035 226.104 106.2 233.643 131.13 238.039L134.603 218.343ZM78.348 170.548C81.8159 150.881 86.5544 134.294 92.4541 120.656L74.098 112.715C67.4275 128.135 62.3152 146.299 58.6519 167.075L78.348 170.548ZM92.4944 120.561C97.7046 108.169 106.066 101.272 118.134 98.7505L114.043 79.1733C95.1864 83.1132 81.6725 94.6984 74.0577 112.809L92.4944 120.561ZM118.134 98.7505C121.087 98.1334 126.027 97.6583 133.331 97.4913L132.873 77.4966C125.224 77.6715 118.821 78.1751 114.043 79.1733L118.134 98.7505ZM134.269 97.4257C141.17 96.615 148.335 96.5112 155.777 97.1369L157.453 77.2072C148.752 76.4758 140.242 76.5865 131.935 77.5622L134.269 97.4257ZM156.668 97.1719C164.336 97.1311 171.443 97.7069 178.01 98.8648L181.483 79.1687C173.606 77.7797 165.292 77.1258 156.562 77.1722L156.668 97.1719ZM179.108 98.9964C182.064 99.1855 184.089 99.5106 185.37 99.8484C185.996 100.013 186.297 100.143 186.37 100.178C186.453 100.218 186.123 100.078 185.647 99.6231L199.462 85.1613C196.721 82.5422 193.27 81.2474 190.467 80.5087C187.479 79.7213 184.055 79.272 180.385 79.0372L179.108 98.9964ZM185.769 99.7372C193.451 106.835 198.947 115.431 202.296 125.696L221.309 119.491C216.924 106.053 209.587 94.5142 199.341 85.0472L185.769 99.7372ZM202.144 125.184C204.979 135.752 205.485 145.177 203.998 153.609L223.694 157.082C225.773 145.294 224.917 132.883 221.461 120.002L202.144 125.184ZM203.998 153.609C199.978 176.411 192.953 193.979 183.393 206.868L199.456 218.783C211.387 202.697 219.31 181.945 223.694 157.082L203.998 153.609ZM183.497 206.731C175.15 217.587 160.285 222.871 134.603 218.343L131.13 238.039C160.335 243.188 184.509 238.228 199.352 218.921L183.497 206.731Z" fill="white" fill-opacity="0.5" mask="url(#path-4-inside-2_175_2)"/>
</g>
<defs>
<linearGradient id="paint0_linear_175_2" x1="411.634" y1="612.856" x2="168.895" y2="175.999" gradientUnits="userSpaceOnUse">
<stop stop-color="#00FF3F"/>
<stop offset="1" stop-color="#6F73D2"/>
</linearGradient>
<linearGradient id="paint1_linear_175_2" x1="827.758" y1="633.372" x2="10.8724" y2="554.968" gradientUnits="userSpaceOnUse">
<stop stop-color="#00FF3F"/>
<stop offset="1" stop-color="#6F73D2"/>
</linearGradient>
<clipPath id="clip0_175_2">
<rect width="700" height="700" rx="250" fill="white"/>
</clipPath>
</defs>
</svg>
